<svg width="400.000000" height="400.000000" viewBox="0 0 400 400" fill="none" xmlns="http://www.w3.org/2000/svg" xmlns:xlink="http://www.w3.org/1999/xlink">
	<desc>
			Created with Pixso.
	</desc>
	<defs>
		<clipPath id="clip73_1">
			<rect id="test" rx="50.000000" width="400.000000" height="400.000000" fill="white" fill-opacity="0"/>
		</clipPath>
	</defs>
	<rect id="test" rx="50.000000" width="400.000000" height="400.000000" fill="#CAFF33" fill-opacity="1.000000"/>
	<g clip-path="url(#clip73_1)">
		<path id="Tether (USDT)" d="M228.485 171.59L228.485 171.603L228.472 171.589C228.476 171.59 228.481 171.59 228.485 171.59ZM228.485 137.304L228.485 171.59C292.158 174.534 340 187.156 340 202.282C340 217.41 292.111 230.031 228.472 232.962L228.472 342.912L171.753 342.912L171.753 233.001C107.968 230.058 60 217.436 60 202.295C60 187.155 107.968 174.519 171.753 171.589L171.753 137.304L93.2781 137.304L93.2781 85L306.974 85L306.974 137.304L228.485 137.304ZM228.485 223.64C226.894 223.76 218.674 224.25 200.338 224.25C185.754 224.25 175.399 223.813 171.767 223.64C115.406 221.161 73.3378 211.35 73.3378 199.603C73.3378 187.856 115.406 178.059 171.767 175.54L171.767 213.869C175.452 214.134 186.006 214.757 200.59 214.757C218.091 214.757 226.854 214.028 228.432 213.882L228.432 175.566C284.673 178.072 326.649 187.883 326.649 199.603C326.649 211.323 284.687 221.135 228.432 223.627L228.485 223.64Z" clip-rule="evenodd" fill="#000000" fill-opacity="1.000000" fill-rule="evenodd"/>
	</g>
</svg>
